<svg width="1553" height="1491" viewBox="0 0 1553 1491" fill="none" xmlns="http://www.w3.org/2000/svg">
<path d="M427.627 896.843L427.655 896.853L427.682 896.862C445.342 902.976 466.132 906 490 906C503.407 906 513.978 902.558 521.268 895.268C528.759 887.777 532.5 878.464 532.5 867.5C532.5 857.36 529.694 848.768 523.933 841.914C517.929 834.428 508.034 831 495 831C483.499 831 474.297 829.849 467.307 827.633C460.594 825.18 455.411 820.777 451.705 814.32C448.282 807.439 446.155 797.359 445.497 783.878L438.61 640.46C437.643 620.327 421.038 604.5 400.882 604.5C379.36 604.5 362.188 622.456 363.148 643.957L370.502 808.612L370.503 808.627L370.504 808.643C371.853 832.255 377.262 851.4 386.92 865.887L386.928 865.898L386.935 865.91C396.588 880.044 410.192 890.347 427.627 896.843Z" fill="white" stroke="white" stroke-width="5"/>
<path d="M1312 461.579C1312 461.579 1381.5 559 1397 773.5C1412.5 988 1363 1068.5 1363 1068.5M1129.25 434C1129.25 434 1226.5 564.5 1247.02 703.866C1267.54 843.233 1260.98 888 1196.26 888C1184.5 888 840.5 907.5 918.5 1111" stroke="white" stroke-width="90" stroke-linecap="round"/>
<path d="M786.5 531C786.5 531 952.896 582.32 1024 636C1105.29 697.369 1074.5 838 786.5 851.5" stroke="white" stroke-width="90" stroke-linecap="round"/>
<path d="M770 872C770 918.658 726.685 964 663.5 964C631.616 964 603.757 951.926 584.651 933.729C566.892 916.815 557 895.059 557 872C557 825.342 600.315 780 663.5 780C726.685 780 770 825.342 770 872Z" stroke="white" stroke-width="90"/>
<path d="M300.379 804.81C249.952 807.216 206.904 768.151 204.477 717.281C203.223 690.995 213.027 666.848 229.86 649.218C245.57 632.763 267.216 622.183 291.611 621.019C330.295 619.174 359.007 619.776 377.853 626.229C386.122 629.06 389.753 632.175 391.569 634.474C393.209 636.551 396.076 641.341 396.621 652.764C397.851 678.533 386.204 718.212 363.873 752.749C340.502 788.894 315.822 804.074 300.379 804.81Z" stroke="white" stroke-width="90"/>
<circle cx="221.5" cy="448.5" r="68.5" fill="white"/>
<circle cx="378.5" cy="448.5" r="68.5" fill="white"/>
</svg>
